*
*
G04 PADS 9.5 Build Number: 522968 generated Gerber (RS-274-X) file*
G04 PC Version=2.1*
*
%IN "ESP_WROOM_02.pcb"*%
*
%MOIN*%
*
%FSLAX35Y35*%
*
*
*
*
G04 PC Standard Apertures*
*
*
G04 Thermal Relief Aperture macro.*
%AMTER*
1,1,$1,0,0*
1,0,$1-$2,0,0*
21,0,$3,$4,0,0,45*
21,0,$3,$4,0,0,135*
%
*
*
G04 Annular Aperture macro.*
%AMANN*
1,1,$1,0,0*
1,0,$2,0,0*
%
*
*
G04 Odd Aperture macro.*
%AMODD*
1,1,$1,0,0*
1,0,$1-0.005,0,0*
%
*
*
G04 PC Custom Aperture Macros*
*
*
*
*
*
*
G04 PC Aperture Table*
*
%ADD010C,0.001*%
%ADD012C,0.01*%
%ADD031C,0.00394*%
*
*
*
*
G04 PC Circuitry*
G04 Layer Name ESP_WROOM_02.pcb - circuitry*
%LPD*%
*
*
G04 PC Custom Flashes*
G04 Layer Name ESP_WROOM_02.pcb - flashes*
%LPD*%
*
*
G04 PC Circuitry*
G04 Layer Name ESP_WROOM_02.pcb - circuitry*
%LPD*%
*
G54D10*
G54D12*
G01X1964504Y1613780D02*
X1972504D01*
X1968504Y1609780D02*
Y1617780D01*
X1964504Y1607874D02*
X1972504D01*
X1968504Y1603874D02*
Y1611874D01*
X1964504Y1596063D02*
X1972504D01*
X1968504Y1592063D02*
Y1600063D01*
X1964504Y1584252D02*
X1972504D01*
X1968504Y1580252D02*
Y1588252D01*
X2035370Y1619685D02*
X2043370D01*
X2039370Y1615685D02*
Y1623685D01*
X2035370Y1613780D02*
X2043370D01*
X2039370Y1609780D02*
Y1617780D01*
X2035370Y1601969D02*
X2043370D01*
X2039370Y1597969D02*
Y1605969D01*
X2035370Y1625591D02*
X2043370D01*
X2039370Y1621591D02*
Y1629591D01*
X1964504Y1578346D02*
X1972504D01*
X1968504Y1574346D02*
Y1582346D01*
X1964504Y1625591D02*
X1972504D01*
X1968504Y1621591D02*
Y1629591D01*
X1964504Y1601969D02*
X1972504D01*
X1968504Y1597969D02*
Y1605969D01*
X1964504Y1590157D02*
X1972504D01*
X1968504Y1586157D02*
Y1594157D01*
X2035370Y1578346D02*
X2043370D01*
X2039370Y1574346D02*
Y1582346D01*
X1964504Y1619685D02*
X1972504D01*
X1968504Y1615685D02*
Y1623685D01*
X2035370Y1607874D02*
X2043370D01*
X2039370Y1603874D02*
Y1611874D01*
X2035370Y1584252D02*
X2043370D01*
X2039370Y1580252D02*
Y1588252D01*
X2035370Y1590157D02*
X2043370D01*
X2039370Y1586157D02*
Y1594157D01*
X2035370Y1596063D02*
X2043370D01*
X2039370Y1592063D02*
Y1600063D01*
X1970004Y1574411D02*
X1978004Y1582411D01*
X1970004D02*
X1978004Y1574411D01*
X1976704Y1574211D02*
X1984704Y1582211D01*
X1976704D02*
X1984704Y1574211D01*
X1992804Y1574411D02*
X2000804Y1582411D01*
X1992804D02*
X2000804Y1574411D01*
X1984704Y1574211D02*
X1992704Y1582211D01*
X1984704D02*
X1992704Y1574211D01*
X2012304Y1574411D02*
X2020304Y1582411D01*
X2012304D02*
X2020304Y1574411D01*
X2003304Y1574211D02*
X2011304Y1582211D01*
X2003304D02*
X2011304Y1574211D01*
X2020804Y1574411D02*
X2028804Y1582411D01*
X2020804D02*
X2028804Y1574411D01*
X2029304Y1574311D02*
X2037304Y1582311D01*
X2029304D02*
X2037304Y1574311D01*
X1969904Y1579111D02*
X1977904Y1587111D01*
X1969904D02*
X1977904Y1579111D01*
X1973304Y1577811D02*
X1981304Y1585811D01*
X1973304D02*
X1981304Y1577811D01*
X1991504Y1583411D02*
X1999504Y1591411D01*
X1991504D02*
X1999504Y1583411D01*
X1983304Y1582211D02*
X1991304Y1590211D01*
X1983304D02*
X1991304Y1582211D01*
X2011665Y1583440D02*
X2019665Y1591440D01*
X2011665D02*
X2019665Y1583440D01*
X2020004Y1579211D02*
X2028004Y1587211D01*
X2020004D02*
X2028004Y1579211D01*
X2013004Y1579311D02*
X2021004Y1587311D01*
X2013004D02*
X2021004Y1579311D01*
X2019304Y1585403D02*
X2027304Y1593403D01*
X2019304D02*
X2027304Y1585403D01*
X2020204Y1583403D02*
X2028204Y1591403D01*
X2020204D02*
X2028204Y1583403D01*
X2016304Y1579411D02*
X2024304Y1587411D01*
X2016304D02*
X2024304Y1579411D01*
X1969902Y1591080D02*
X1977902Y1599080D01*
X1969902D02*
X1977902Y1591080D01*
X1973104Y1590811D02*
X1981104Y1598811D01*
X1973104D02*
X1981104Y1590811D01*
X1981904Y1591911D02*
X1989904Y1599911D01*
X1981904D02*
X1989904Y1591911D01*
X1990504Y1589811D02*
X1998504Y1597811D01*
X1990504D02*
X1998504Y1589811D01*
X1989804Y1594411D02*
X1997804Y1602411D01*
X1989804D02*
X1997804Y1594411D01*
X1990604Y1592111D02*
X1998604Y1600111D01*
X1990604D02*
X1998604Y1592111D01*
X1991704Y1587711D02*
X1999704Y1595711D01*
X1991704D02*
X1999704Y1587711D01*
X2002004Y1595811D02*
X2010004Y1603811D01*
X2002004D02*
X2010004Y1595811D01*
X2002004Y1592811D02*
X2010004Y1600811D01*
X2002004D02*
X2010004Y1592811D01*
X1998904Y1595711D02*
X2006904Y1603711D01*
X1998904D02*
X2006904Y1595711D01*
X1998804Y1592611D02*
X2006804Y1600611D01*
X1998804D02*
X2006804Y1592611D01*
X1998804Y1589611D02*
X2006804Y1597611D01*
X1998804D02*
X2006804Y1589611D01*
X2002004D02*
X2010004Y1597611D01*
X2002004D02*
X2010004Y1589611D01*
X2005904Y1595811D02*
X2013904Y1603811D01*
X2005904D02*
X2013904Y1595811D01*
X2005904Y1592711D02*
X2013904Y1600711D01*
X2005904D02*
X2013904Y1592711D01*
X2005804Y1589611D02*
X2013804Y1597611D01*
X2005804D02*
X2013804Y1589611D01*
X2009904D02*
X2017904Y1597611D01*
X2009904D02*
X2017904Y1589611D01*
X2009904Y1592611D02*
X2017904Y1600611D01*
X2009904D02*
X2017904Y1592611D01*
X2009904Y1595411D02*
X2017904Y1603411D01*
X2009904D02*
X2017904Y1595411D01*
X2016504Y1590711D02*
X2024504Y1598711D01*
X2016504D02*
X2024504Y1590711D01*
X2030304Y1588711D02*
X2038304Y1596711D01*
X2030304D02*
X2038304Y1588711D01*
X2030304Y1593511D02*
X2038304Y1601511D01*
X2030304D02*
X2038304Y1593511D01*
X1969704Y1598603D02*
X1977704Y1606603D01*
X1969704D02*
X1977704Y1598603D01*
X1969890Y1602675D02*
X1977890Y1610675D01*
X1969890D02*
X1977890Y1602675D01*
X1973204Y1602511D02*
X1981204Y1610511D01*
X1973204D02*
X1981204Y1602511D01*
X1979404Y1603111D02*
X1987404Y1611111D01*
X1979404D02*
X1987404Y1603111D01*
X1973104Y1598511D02*
X1981104Y1606511D01*
X1973104D02*
X1981104Y1598511D01*
X1979404Y1597811D02*
X1987404Y1605811D01*
X1979404D02*
X1987404Y1597811D01*
X1984504Y1598811D02*
X1992504Y1606811D01*
X1984504D02*
X1992504Y1598811D01*
X1991804Y1600611D02*
X1999804Y1608611D01*
X1991804D02*
X1999804Y1600611D01*
X1991004Y1596511D02*
X1999004Y1604511D01*
X1991004D02*
X1999004Y1596511D01*
X2002004Y1598811D02*
X2010004Y1606811D01*
X2002004D02*
X2010004Y1598811D01*
X1998904D02*
X2006904Y1606811D01*
X1998904D02*
X2006904Y1598811D01*
X2002004Y1601311D02*
X2010004Y1609311D01*
X2002004D02*
X2010004Y1601311D01*
X1999004D02*
X2007004Y1609311D01*
X1999004D02*
X2007004Y1601311D01*
X1993804Y1604211D02*
X2001804Y1612211D01*
X1993804D02*
X2001804Y1604211D01*
X1995704Y1605711D02*
X2003704Y1613711D01*
X1995704D02*
X2003704Y1605711D01*
X2005904Y1598611D02*
X2013904Y1606611D01*
X2005904D02*
X2013904Y1598611D01*
X2009904Y1598411D02*
X2017904Y1606411D01*
X2009904D02*
X2017904Y1598411D01*
X2006004Y1601411D02*
X2014004Y1609411D01*
X2006004D02*
X2014004Y1601411D01*
X2010004D02*
X2018004Y1609411D01*
X2010004D02*
X2018004Y1601411D01*
X2013804Y1604411D02*
X2021804Y1612411D01*
X2013804D02*
X2021804Y1604411D01*
X2016704Y1597511D02*
X2024704D01*
Y1605511*
X2016704*
Y1597511*
X2020704Y1601511D02*
Y1605511D01*
X2026704Y1603403D02*
X2034704Y1611403D01*
X2026704D02*
X2034704Y1603403D01*
X2030404Y1598311D02*
X2038404Y1606311D01*
X2030404D02*
X2038404Y1598311D01*
X2027804Y1599103D02*
X2035804Y1607103D01*
X2027804D02*
X2035804Y1599103D01*
X2027604Y1601003D02*
X2035604Y1609003D01*
X2027604D02*
X2035604Y1601003D01*
X2030404Y1602011D02*
X2038404Y1610011D01*
X2030404D02*
X2038404Y1602011D01*
X1969531Y1613424D02*
X1977531Y1621424D01*
X1969531D02*
X1977531Y1613424D01*
X1980759Y1612510D02*
X1984759Y1616510D01*
X1984759D02*
X1980759Y1620510D01*
X1980759D02*
X1976759Y1616510D01*
X1976759D02*
X1980759Y1612510D01*
Y1616510D02*
Y1620510D01*
X1991804Y1612011D02*
X1999804Y1620011D01*
X1991804D02*
X1999804Y1612011D01*
X1989404Y1611911D02*
X1997404Y1619911D01*
X1989404D02*
X1997404Y1611911D01*
X1987004D02*
X1995004Y1619911D01*
X1987004D02*
X1995004Y1611911D01*
Y1615511D02*
X2003004Y1623511D01*
X1995004D02*
X2003004Y1615511D01*
X2001404Y1607611D02*
X2009404Y1615611D01*
X2001404D02*
X2009404Y1607611D01*
X2001004Y1614411D02*
X2009004Y1622411D01*
X2001004D02*
X2009004Y1614411D01*
X1997404Y1608911D02*
X2005404Y1616911D01*
X1997404D02*
X2005404Y1608911D01*
X2003704Y1612303D02*
X2011704Y1620303D01*
X2003704D02*
X2011704Y1612303D01*
X2005804Y1608303D02*
X2013804D01*
Y1616303*
X2005804*
Y1608303*
X2009804Y1612303D02*
Y1616303D01*
X2008004Y1616111D02*
X2016004Y1624111D01*
X2008004D02*
X2016004Y1616111D01*
X2009704Y1614811D02*
X2017704Y1622811D01*
X2009704D02*
X2017704Y1614811D01*
X2015704Y1615211D02*
X2023704Y1623211D01*
X2015704D02*
X2023704Y1615211D01*
X2021704Y1615011D02*
X2029704Y1623011D01*
X2021704D02*
X2029704Y1615011D01*
X2019104Y1615503D02*
X2027104Y1623503D01*
X2019104D02*
X2027104Y1615503D01*
X2019204Y1608403D02*
X2027204Y1616403D01*
X2019204D02*
X2027204Y1608403D01*
X2015104Y1612711D02*
X2023104Y1620711D01*
X2015104D02*
X2023104Y1612711D01*
X2024804Y1615411D02*
X2032804Y1623411D01*
X2024804D02*
X2032804Y1615411D01*
X2030204Y1608011D02*
X2038204Y1616011D01*
X2030204D02*
X2038204Y1608011D01*
X2030204Y1613011D02*
X2038204Y1621011D01*
X2030204D02*
X2038204Y1613011D01*
X2027604Y1612803D02*
X2035604Y1620803D01*
X2027604D02*
X2035604Y1612803D01*
X1970304Y1621911D02*
X1978304Y1629911D01*
X1970304D02*
X1978304Y1621911D01*
X1969504Y1624603D02*
X1977504Y1632603D01*
X1969504D02*
X1977504Y1624603D01*
X1973904Y1621903D02*
X1981904Y1629903D01*
X1973904D02*
X1981904Y1621903D01*
X1975104Y1619903D02*
X1983104Y1627903D01*
X1975104D02*
X1983104Y1619903D01*
X1981604Y1621911D02*
X1989604Y1629911D01*
X1981604D02*
X1989604Y1621911D01*
X1978104Y1619803D02*
X1986104Y1627803D01*
X1978104D02*
X1986104Y1619803D01*
X1980504Y1618503D02*
X1988504Y1626503D01*
X1980504D02*
X1988504Y1618503D01*
X1977504Y1622003D02*
X1985504Y1630003D01*
X1977504D02*
X1985504Y1622003D01*
X1977104Y1624711D02*
X1985104Y1632711D01*
X1977104D02*
X1985104Y1624711D01*
X1973004Y1624603D02*
X1981004Y1632603D01*
X1973004D02*
X1981004Y1624603D01*
X1986736Y1621913D02*
X1994736Y1629913D01*
X1986736D02*
X1994736Y1621913D01*
X1983104Y1624703D02*
X1991104Y1632703D01*
X1983104D02*
X1991104Y1624703D01*
X1983601Y1617748D02*
X1991601Y1625748D01*
X1983601D02*
X1991601Y1617748D01*
X1992204Y1621911D02*
X2000204Y1629911D01*
X1992204D02*
X2000204Y1621911D01*
X1985660Y1619760D02*
X1993660Y1627760D01*
X1985660D02*
X1993660Y1619760D01*
X1989204Y1624703D02*
X1997204Y1632703D01*
X1989204D02*
X1997204Y1624703D01*
X1997404Y1618811D02*
X2005404Y1626811D01*
X1997404D02*
X2005404Y1618811D01*
X1994904Y1618311D02*
X2002904Y1626311D01*
X1994904D02*
X2002904Y1618311D01*
X1994504Y1624703D02*
X2002504Y1632703D01*
X1994504D02*
X2002504Y1624703D01*
X1997604Y1621911D02*
X2005604Y1629911D01*
X1997604D02*
X2005604Y1621911D01*
X1998604Y1624711D02*
X2006604Y1632711D01*
X1998604D02*
X2006604Y1624711D01*
X2007304Y1619811D02*
X2015304Y1627811D01*
X2007304D02*
X2015304Y1619811D01*
X2004004Y1622111D02*
X2012004Y1630111D01*
X2004004D02*
X2012004Y1622111D01*
X2011604Y1619711D02*
X2019604Y1627711D01*
X2011604D02*
X2019604Y1619711D01*
X2009004Y1621911D02*
X2017004Y1629911D01*
X2009004D02*
X2017004Y1621911D01*
X2003904Y1620011D02*
X2011904Y1628011D01*
X2003904D02*
X2011904Y1620011D01*
X2020604Y1624711D02*
X2028604Y1632711D01*
X2020604D02*
X2028604Y1624711D01*
X2022404Y1622011D02*
X2030404Y1630011D01*
X2022404D02*
X2030404Y1622011D01*
X2013504Y1621911D02*
X2021504Y1629911D01*
X2013504D02*
X2021504Y1621911D01*
X2018704Y1622011D02*
X2026704Y1630011D01*
X2018704D02*
X2026704Y1622011D01*
X2016204Y1619811D02*
X2024204Y1627811D01*
X2016204D02*
X2024204Y1619811D01*
X2029904Y1624611D02*
X2037904Y1632611D01*
X2029904D02*
X2037904Y1624611D01*
X2025804D02*
X2033804Y1632611D01*
X2025804D02*
X2033804Y1624611D01*
X2023304Y1624711D02*
X2031304Y1632711D01*
X2023304D02*
X2031304Y1624711D01*
X2024704Y1619811D02*
X2032704Y1627811D01*
X2024704D02*
X2032704Y1619811D01*
X2030275Y1620007D02*
X2038275Y1628007D01*
X2030275D02*
X2038275Y1620007D01*
X2028754Y1621945D02*
X2036754Y1629945D01*
X2028754D02*
X2036754Y1621945D01*
X2025684Y1621975D02*
X2033684Y1629975D01*
X2025684D02*
X2033684Y1621975D01*
X3149606Y1694803D02*
X3407606D01*
X3149606Y1670803D02*
X3407606D01*
X3149606Y1646803D02*
X3407606D01*
X3149606Y1622803D02*
X3407606D01*
X3149606Y1598803D02*
X3407606D01*
X3149606Y1574803D02*
X3407606D01*
X3149606Y1694803D02*
Y1574803D01*
X3233606Y1694803D02*
Y1574803D01*
X3269606Y1694803D02*
Y1574803D01*
X3305606Y1694803D02*
Y1574803D01*
X3359606Y1694803D02*
Y1574803D01*
X3407606Y1694803D02*
Y1574803D01*
X3185106Y1683553D02*
X3184561Y1684303D01*
X3183743Y1684678*
X3182652*
X3181834Y1684303*
X3181288Y1683553*
Y1682803*
X3181561Y1682053*
X3181834Y1681678*
X3182379Y1681303*
X3184015Y1680553*
X3184561Y1680178*
X3184834Y1679803*
X3185106Y1679053*
Y1677928*
X3184561Y1677178*
X3183743Y1676803*
X3182652*
X3181834Y1677178*
X3181288Y1677928*
X3187561Y1684678D02*
Y1676803D01*
X3193834Y1684678D02*
X3190015Y1676803D01*
Y1684678D02*
X3193834D01*
X3190015Y1676803D02*
X3193834D01*
X3196288Y1684678D02*
Y1676803D01*
Y1684678D02*
X3199834D01*
X3196288Y1680928D02*
X3198470D01*
X3196288Y1676803D02*
X3199834D01*
X3243470Y1684678D02*
X3242924Y1684303D01*
X3242379Y1683553*
X3242106Y1682803*
X3241834Y1681678*
Y1679803*
X3242106Y1678678*
X3242379Y1677928*
X3242924Y1677178*
X3243470Y1676803*
X3244561*
X3245106Y1677178*
X3245652Y1677928*
X3245924Y1678678*
X3246197Y1679803*
Y1681678*
X3245924Y1682803*
X3245652Y1683553*
X3245106Y1684303*
X3244561Y1684678*
X3243470*
X3244288Y1678303D02*
X3245924Y1676053D01*
X3250561Y1684678D02*
Y1676803D01*
X3248652Y1684678D02*
X3252470D01*
X3254924D02*
X3257106Y1680928D01*
Y1676803*
X3259288Y1684678D02*
X3257106Y1680928D01*
X3281652Y1683553D02*
X3281106Y1684303D01*
X3280288Y1684678*
X3279197*
X3278379Y1684303*
X3277834Y1683553*
Y1682803*
X3278106Y1682053*
X3278379Y1681678*
X3278924Y1681303*
X3280561Y1680553*
X3281106Y1680178*
X3281379Y1679803*
X3281652Y1679053*
Y1677928*
X3281106Y1677178*
X3280288Y1676803*
X3279197*
X3278379Y1677178*
X3277834Y1677928*
X3284106Y1684678D02*
X3286288Y1680928D01*
Y1676803*
X3288470Y1684678D02*
X3286288Y1680928D01*
X3290924Y1684678D02*
Y1676803D01*
Y1684678D02*
X3293106Y1676803D01*
X3295288Y1684678D02*
X3293106Y1676803D01*
X3295288Y1684678D02*
Y1676803D01*
X3317106Y1684678D02*
Y1676803D01*
Y1684678D02*
X3319561D01*
X3320379Y1684303*
X3320652Y1683928*
X3320924Y1683178*
Y1682053*
X3320652Y1681303*
X3320379Y1680928*
X3319561Y1680553*
X3317106*
X3323379Y1684678D02*
Y1676803D01*
X3326652*
X3331288Y1684678D02*
X3329106Y1676803D01*
X3331288Y1684678D02*
X3333470Y1676803D01*
X3329924Y1679428D02*
X3332652D01*
X3337834Y1684678D02*
Y1676803D01*
X3335924Y1684678D02*
X3339743D01*
X3342197D02*
Y1676803D01*
Y1684678D02*
X3345743D01*
X3342197Y1680928D02*
X3344379D01*
X3342197Y1676803D02*
X3345743D01*
X3348197Y1684678D02*
Y1676803D01*
Y1684678D02*
X3350106D01*
X3350924Y1684303*
X3351470Y1683553*
X3351743Y1682803*
X3352015Y1681678*
Y1679803*
X3351743Y1678678*
X3351470Y1677928*
X3350924Y1677178*
X3350106Y1676803*
X3348197*
X3376288Y1684678D02*
Y1676803D01*
X3374379Y1684678D02*
X3378197D01*
X3382288D02*
X3381743Y1684303D01*
X3381197Y1683553*
X3380924Y1682803*
X3380652Y1681678*
Y1679803*
X3380924Y1678678*
X3381197Y1677928*
X3381743Y1677178*
X3382288Y1676803*
X3383379*
X3383924Y1677178*
X3384470Y1677928*
X3384743Y1678678*
X3385015Y1679803*
Y1681678*
X3384743Y1682803*
X3384470Y1683553*
X3383924Y1684303*
X3383379Y1684678*
X3382288*
X3387470D02*
Y1676803D01*
X3390743*
X3155879Y1658803D02*
Y1659178D01*
X3156152Y1659928*
X3156424Y1660303*
X3156970Y1660678*
X3158061*
X3158606Y1660303*
X3158879Y1659928*
X3159152Y1659178*
Y1658428*
X3158879Y1657678*
X3158334Y1656553*
X3155606Y1652803*
X3159424*
X3161879Y1659178D02*
X3162424Y1659553D01*
X3163243Y1660678*
Y1652803*
X3165970Y1653553D02*
X3165697Y1653178D01*
X3165970Y1652803*
X3166243Y1653178*
X3165970Y1653553*
X3171970Y1659553D02*
X3171697Y1660303D01*
X3170879Y1660678*
X3170334*
X3169515Y1660303*
X3168970Y1659178*
X3168697Y1657303*
Y1655428*
X3168970Y1653928*
X3169515Y1653178*
X3170334Y1652803*
X3170606*
X3171424Y1653178*
X3171970Y1653928*
X3172243Y1655053*
Y1655428*
X3171970Y1656553*
X3171424Y1657303*
X3170606Y1657678*
X3170334*
X3169515Y1657303*
X3168970Y1656553*
X3168697Y1655428*
X3178243Y1660678D02*
X3175515D01*
X3175243Y1657303*
X3175515Y1657678*
X3176334Y1658053*
X3177152*
X3177970Y1657678*
X3178515Y1656928*
X3178788Y1655803*
X3178515Y1655053*
X3178243Y1653928*
X3177697Y1653178*
X3176879Y1652803*
X3176061*
X3175243Y1653178*
X3174970Y1653553*
X3174697Y1654303*
X3246743Y1659178D02*
X3247288Y1659553D01*
X3248106Y1660678*
Y1652803*
X3251924Y1660678D02*
X3251106Y1660303D01*
X3250834Y1659553*
Y1658803*
X3251106Y1658053*
X3251652Y1657678*
X3252743Y1657303*
X3253561Y1656928*
X3254106Y1656178*
X3254379Y1655428*
Y1654303*
X3254106Y1653553*
X3253834Y1653178*
X3253015Y1652803*
X3251924*
X3251106Y1653178*
X3250834Y1653553*
X3250561Y1654303*
Y1655428*
X3250834Y1656178*
X3251379Y1656928*
X3252197Y1657303*
X3253288Y1657678*
X3253834Y1658053*
X3254106Y1658803*
Y1659553*
X3253834Y1660303*
X3253015Y1660678*
X3251924*
X3281606Y1658803D02*
X3293606D01*
X3287606Y1652803D02*
Y1664803D01*
X3314243Y1660678D02*
X3316424Y1656928D01*
Y1652803*
X3318606Y1660678D02*
X3316424Y1656928D01*
X3321061Y1660678D02*
Y1652803D01*
Y1660678D02*
X3324606D01*
X3321061Y1656928D02*
X3323243D01*
X3321061Y1652803D02*
X3324606D01*
X3330879Y1659553D02*
X3330334Y1660303D01*
X3329515Y1660678*
X3328424*
X3327606Y1660303*
X3327061Y1659553*
Y1658803*
X3327334Y1658053*
X3327606Y1657678*
X3328152Y1657303*
X3329788Y1656553*
X3330334Y1656178*
X3330606Y1655803*
X3330879Y1655053*
Y1653928*
X3330334Y1653178*
X3329515Y1652803*
X3328424*
X3327606Y1653178*
X3327061Y1653928*
X3367424Y1659553D02*
Y1652803D01*
X3364970Y1656178D02*
X3369879D01*
X3377243Y1662178D02*
X3372334Y1650178D01*
X3379697Y1656178D02*
X3384606D01*
X3388697Y1660678D02*
X3387879Y1660303D01*
X3387334Y1659178*
X3387061Y1657303*
Y1656178*
X3387334Y1654303*
X3387879Y1653178*
X3388697Y1652803*
X3389243*
X3390061Y1653178*
X3390606Y1654303*
X3390879Y1656178*
Y1657303*
X3390606Y1659178*
X3390061Y1660303*
X3389243Y1660678*
X3388697*
X3393606Y1653553D02*
X3393334Y1653178D01*
X3393606Y1652803*
X3393879Y1653178*
X3393606Y1653553*
X3397970Y1660678D02*
X3397152Y1660303D01*
X3396606Y1659178*
X3396334Y1657303*
Y1656178*
X3396606Y1654303*
X3397152Y1653178*
X3397970Y1652803*
X3398515*
X3399334Y1653178*
X3399879Y1654303*
X3400152Y1656178*
Y1657303*
X3399879Y1659178*
X3399334Y1660303*
X3398515Y1660678*
X3397970*
X3159152Y1634053D02*
X3158879Y1632928D01*
X3158334Y1632178*
X3157515Y1631803*
X3157243*
X3156424Y1632178*
X3155879Y1632928*
X3155606Y1634053*
Y1634428*
X3155879Y1635553*
X3156424Y1636303*
X3157243Y1636678*
X3157515*
X3158334Y1636303*
X3158879Y1635553*
X3159152Y1634053*
Y1632178*
X3158879Y1630303*
X3158334Y1629178*
X3157515Y1628803*
X3156970*
X3156152Y1629178*
X3155879Y1629928*
X3161879Y1629553D02*
X3161606Y1629178D01*
X3161879Y1628803*
X3162152Y1629178*
X3161879Y1629553*
X3165970Y1636678D02*
X3165152Y1636303D01*
X3164879Y1635553*
Y1634803*
X3165152Y1634053*
X3165697Y1633678*
X3166788Y1633303*
X3167606Y1632928*
X3168152Y1632178*
X3168424Y1631428*
Y1630303*
X3168152Y1629553*
X3167879Y1629178*
X3167061Y1628803*
X3165970*
X3165152Y1629178*
X3164879Y1629553*
X3164606Y1630303*
Y1631428*
X3164879Y1632178*
X3165424Y1632928*
X3166243Y1633303*
X3167334Y1633678*
X3167879Y1634053*
X3168152Y1634803*
Y1635553*
X3167879Y1636303*
X3167061Y1636678*
X3165970*
X3173606D02*
X3170879Y1631428D01*
X3174970*
X3173606Y1636678D02*
Y1628803D01*
X3243606Y1635178D02*
X3244152Y1635553D01*
X3244970Y1636678*
Y1628803*
X3247697Y1634803D02*
Y1635178D01*
X3247970Y1635928*
X3248243Y1636303*
X3248788Y1636678*
X3249879*
X3250424Y1636303*
X3250697Y1635928*
X3250970Y1635178*
Y1634428*
X3250697Y1633678*
X3250152Y1632553*
X3247424Y1628803*
X3251243*
X3254243Y1636678D02*
X3257243D01*
X3255606Y1633678*
X3256424*
X3256970Y1633303*
X3257243Y1632928*
X3257515Y1631803*
Y1631053*
X3257243Y1629928*
X3256697Y1629178*
X3255879Y1628803*
X3255061*
X3254243Y1629178*
X3253970Y1629553*
X3253697Y1630303*
X3281606Y1628803D02*
X3293606Y1640803D01*
X3281606D02*
X3293606Y1628803D01*
X3314243Y1636678D02*
X3316424Y1632928D01*
Y1628803*
X3318606Y1636678D02*
X3316424Y1632928D01*
X3321061Y1636678D02*
Y1628803D01*
Y1636678D02*
X3324606D01*
X3321061Y1632928D02*
X3323243D01*
X3321061Y1628803D02*
X3324606D01*
X3330879Y1635553D02*
X3330334Y1636303D01*
X3329515Y1636678*
X3328424*
X3327606Y1636303*
X3327061Y1635553*
Y1634803*
X3327334Y1634053*
X3327606Y1633678*
X3328152Y1633303*
X3329788Y1632553*
X3330334Y1632178*
X3330606Y1631803*
X3330879Y1631053*
Y1629928*
X3330334Y1629178*
X3329515Y1628803*
X3328424*
X3327606Y1629178*
X3327061Y1629928*
X3367424Y1635553D02*
Y1628803D01*
X3364970Y1632178D02*
X3369879D01*
X3377243Y1638178D02*
X3372334Y1626178D01*
X3379697Y1632178D02*
X3384606D01*
X3388697Y1636678D02*
X3387879Y1636303D01*
X3387334Y1635178*
X3387061Y1633303*
Y1632178*
X3387334Y1630303*
X3387879Y1629178*
X3388697Y1628803*
X3389243*
X3390061Y1629178*
X3390606Y1630303*
X3390879Y1632178*
Y1633303*
X3390606Y1635178*
X3390061Y1636303*
X3389243Y1636678*
X3388697*
X3393606Y1629553D02*
X3393334Y1629178D01*
X3393606Y1628803*
X3393879Y1629178*
X3393606Y1629553*
X3397970Y1636678D02*
X3397152Y1636303D01*
X3396606Y1635178*
X3396334Y1633303*
Y1632178*
X3396606Y1630303*
X3397152Y1629178*
X3397970Y1628803*
X3398515*
X3399334Y1629178*
X3399879Y1630303*
X3400152Y1632178*
Y1633303*
X3399879Y1635178*
X3399334Y1636303*
X3398515Y1636678*
X3397970*
X3155606Y1611178D02*
X3156152Y1611553D01*
X3156970Y1612678*
Y1604803*
X3159697Y1610803D02*
Y1611178D01*
X3159970Y1611928*
X3160243Y1612303*
X3160788Y1612678*
X3161879*
X3162424Y1612303*
X3162697Y1611928*
X3162970Y1611178*
Y1610428*
X3162697Y1609678*
X3162152Y1608553*
X3159424Y1604803*
X3163243*
X3248924Y1610803D02*
Y1611178D01*
X3249197Y1611928*
X3249470Y1612303*
X3250015Y1612678*
X3251106*
X3251652Y1612303*
X3251924Y1611928*
X3252197Y1611178*
Y1610428*
X3251924Y1609678*
X3251379Y1608553*
X3248652Y1604803*
X3252470*
X3281606D02*
X3293606D01*
Y1616803*
X3281606*
Y1604803*
X3287606Y1610803D02*
Y1616803D01*
X3314243Y1612678D02*
X3316424Y1608928D01*
Y1604803*
X3318606Y1612678D02*
X3316424Y1608928D01*
X3321061Y1612678D02*
Y1604803D01*
Y1612678D02*
X3324606D01*
X3321061Y1608928D02*
X3323243D01*
X3321061Y1604803D02*
X3324606D01*
X3330879Y1611553D02*
X3330334Y1612303D01*
X3329515Y1612678*
X3328424*
X3327606Y1612303*
X3327061Y1611553*
Y1610803*
X3327334Y1610053*
X3327606Y1609678*
X3328152Y1609303*
X3329788Y1608553*
X3330334Y1608178*
X3330606Y1607803*
X3330879Y1607053*
Y1605928*
X3330334Y1605178*
X3329515Y1604803*
X3328424*
X3327606Y1605178*
X3327061Y1605928*
X3367424Y1611553D02*
Y1604803D01*
X3364970Y1608178D02*
X3369879D01*
X3377243Y1614178D02*
X3372334Y1602178D01*
X3379697Y1608178D02*
X3384606D01*
X3388697Y1612678D02*
X3387879Y1612303D01*
X3387334Y1611178*
X3387061Y1609303*
Y1608178*
X3387334Y1606303*
X3387879Y1605178*
X3388697Y1604803*
X3389243*
X3390061Y1605178*
X3390606Y1606303*
X3390879Y1608178*
Y1609303*
X3390606Y1611178*
X3390061Y1612303*
X3389243Y1612678*
X3388697*
X3393606Y1605553D02*
X3393334Y1605178D01*
X3393606Y1604803*
X3393879Y1605178*
X3393606Y1605553*
X3397970Y1612678D02*
X3397152Y1612303D01*
X3396606Y1611178*
X3396334Y1609303*
Y1608178*
X3396606Y1606303*
X3397152Y1605178*
X3397970Y1604803*
X3398515*
X3399334Y1605178*
X3399879Y1606303*
X3400152Y1608178*
Y1609303*
X3399879Y1611178*
X3399334Y1612303*
X3398515Y1612678*
X3397970*
X3155606Y1587178D02*
X3156152Y1587553D01*
X3156970Y1588678*
Y1580803*
X3162970Y1588678D02*
X3160243D01*
X3159970Y1585303*
X3160243Y1585678*
X3161061Y1586053*
X3161879*
X3162697Y1585678*
X3163243Y1584928*
X3163515Y1583803*
X3163243Y1583053*
X3162970Y1581928*
X3162424Y1581178*
X3161606Y1580803*
X3160788*
X3159970Y1581178*
X3159697Y1581553*
X3159424Y1582303*
X3249879Y1587178D02*
X3250424Y1587553D01*
X3251243Y1588678*
Y1580803*
X3287606D02*
X3293606Y1586803D01*
X3287606Y1592803*
X3281606Y1586803*
X3287606Y1580803*
Y1586803D02*
Y1592803D01*
X3314243Y1588678D02*
X3316424Y1584928D01*
Y1580803*
X3318606Y1588678D02*
X3316424Y1584928D01*
X3321061Y1588678D02*
Y1580803D01*
Y1588678D02*
X3324606D01*
X3321061Y1584928D02*
X3323243D01*
X3321061Y1580803D02*
X3324606D01*
X3330879Y1587553D02*
X3330334Y1588303D01*
X3329515Y1588678*
X3328424*
X3327606Y1588303*
X3327061Y1587553*
Y1586803*
X3327334Y1586053*
X3327606Y1585678*
X3328152Y1585303*
X3329788Y1584553*
X3330334Y1584178*
X3330606Y1583803*
X3330879Y1583053*
Y1581928*
X3330334Y1581178*
X3329515Y1580803*
X3328424*
X3327606Y1581178*
X3327061Y1581928*
X3367424Y1587553D02*
Y1580803D01*
X3364970Y1584178D02*
X3369879D01*
X3377243Y1590178D02*
X3372334Y1578178D01*
X3379697Y1584178D02*
X3384606D01*
X3388697Y1588678D02*
X3387879Y1588303D01*
X3387334Y1587178*
X3387061Y1585303*
Y1584178*
X3387334Y1582303*
X3387879Y1581178*
X3388697Y1580803*
X3389243*
X3390061Y1581178*
X3390606Y1582303*
X3390879Y1584178*
Y1585303*
X3390606Y1587178*
X3390061Y1588303*
X3389243Y1588678*
X3388697*
X3393606Y1581553D02*
X3393334Y1581178D01*
X3393606Y1580803*
X3393879Y1581178*
X3393606Y1581553*
X3397970Y1588678D02*
X3397152Y1588303D01*
X3396606Y1587178*
X3396334Y1585303*
Y1584178*
X3396606Y1582303*
X3397152Y1581178*
X3397970Y1580803*
X3398515*
X3399334Y1581178*
X3399879Y1582303*
X3400152Y1584178*
Y1585303*
X3399879Y1587178*
X3399334Y1588303*
X3398515Y1588678*
X3397970*
G54D31*
X1968504Y1653543D02*
X2039370D01*
Y1574803*
X1968504*
Y1653543*
X0Y0D02*
M02*
