*
*
G04 PADS 9.5 Build Number: 522968 generated Gerber (RS-274-X) file*
G04 PC Version=2.1*
*
%IN "ESP_WROOM_02.pcb"*%
*
%MOIN*%
*
%FSLAX35Y35*%
*
*
*
*
G04 PC Standard Apertures*
*
*
G04 Thermal Relief Aperture macro.*
%AMTER*
1,1,$1,0,0*
1,0,$1-$2,0,0*
21,0,$3,$4,0,0,45*
21,0,$3,$4,0,0,135*
%
*
*
G04 Annular Aperture macro.*
%AMANN*
1,1,$1,0,0*
1,0,$2,0,0*
%
*
*
G04 Odd Aperture macro.*
%AMODD*
1,1,$1,0,0*
1,0,$1-0.005,0,0*
%
*
*
G04 PC Custom Aperture Macros*
*
*
*
*
*
*
G04 PC Aperture Table*
*
%ADD010C,0.001*%
%ADD031C,0.00394*%
%ADD085R,0.07093X0.03943*%
%ADD086C,0.00394*%
*
*
*
*
G04 PC Circuitry*
G04 Layer Name ESP_WROOM_02.pcb - circuitry*
%LPD*%
*
*
G04 PC Custom Flashes*
G04 Layer Name ESP_WROOM_02.pcb - flashes*
%LPD*%
*
*
G04 PC Circuitry*
G04 Layer Name ESP_WROOM_02.pcb - circuitry*
%LPD*%
*
G54D10*
G54D31*
G01X1968504Y1653543D02*
X2039370D01*
Y1574803*
X1968504*
Y1653543*
G54D85*
Y1613780D03*
Y1607874D03*
Y1596063D03*
Y1584252D03*
X2039370Y1619685D03*
Y1613780D03*
Y1601969D03*
Y1625591D03*
X1968504Y1578346D03*
Y1625591D03*
Y1601969D03*
Y1590157D03*
X2039370Y1578346D03*
X1968504Y1619685D03*
X2039370Y1607874D03*
Y1584252D03*
Y1590157D03*
Y1596063D03*
G54D86*
X2000101Y1607914D02*
X2016607D01*
Y1591408*
X2000101*
Y1607914*
Y1607718D02*
X2016607D01*
X2000101Y1607364D02*
X2016607D01*
X2000101Y1607009D02*
X2016607D01*
X2000101Y1606654D02*
X2016607D01*
X2000101Y1606300D02*
X2016607D01*
X2000101Y1605945D02*
X2016607D01*
X2000101Y1605591D02*
X2016607D01*
X2000101Y1605236D02*
X2016607D01*
X2000101Y1604881D02*
X2016607D01*
X2000101Y1604527D02*
X2016607D01*
X2000101Y1604172D02*
X2016607D01*
X2000101Y1603818D02*
X2016607D01*
X2000101Y1603463D02*
X2016607D01*
X2000101Y1603108D02*
X2016607D01*
X2000101Y1602754D02*
X2016607D01*
X2000101Y1602399D02*
X2016607D01*
X2000101Y1602045D02*
X2016607D01*
X2000101Y1601690D02*
X2016607D01*
X2000101Y1601335D02*
X2016607D01*
X2000101Y1600981D02*
X2016607D01*
X2000101Y1600626D02*
X2016607D01*
X2000101Y1600272D02*
X2016607D01*
X2000101Y1599917D02*
X2016607D01*
X2000101Y1599562D02*
X2016607D01*
X2000101Y1599208D02*
X2016607D01*
X2000101Y1598853D02*
X2016607D01*
X2000101Y1598499D02*
X2016607D01*
X2000101Y1598144D02*
X2016607D01*
X2000101Y1597789D02*
X2016607D01*
X2000101Y1597435D02*
X2016607D01*
X2000101Y1597080D02*
X2016607D01*
X2000101Y1596726D02*
X2016607D01*
X2000101Y1596371D02*
X2016607D01*
X2000101Y1596016D02*
X2016607D01*
X2000101Y1595662D02*
X2016607D01*
X2000101Y1595307D02*
X2016607D01*
X2000101Y1594953D02*
X2016607D01*
X2000101Y1594598D02*
X2016607D01*
X2000101Y1594243D02*
X2016607D01*
X2000101Y1593889D02*
X2016607D01*
X2000101Y1593534D02*
X2016607D01*
X2000101Y1593180D02*
X2016607D01*
X2000101Y1592825D02*
X2016607D01*
X2000101Y1592471D02*
X2016607D01*
X2000101Y1592116D02*
X2016607D01*
X2000101Y1591761D02*
X2016607D01*
X0Y0D02*
M02*
