*
*
G04 PADS 9.5 Build Number: 522968 generated Gerber (RS-274-X) file*
G04 PC Version=2.1*
*
%IN "ESP_WROOM_02.pcb"*%
*
%MOIN*%
*
%FSLAX35Y35*%
*
*
*
*
G04 PC Standard Apertures*
*
*
G04 Thermal Relief Aperture macro.*
%AMTER*
1,1,$1,0,0*
1,0,$1-$2,0,0*
21,0,$3,$4,0,0,45*
21,0,$3,$4,0,0,135*
%
*
*
G04 Annular Aperture macro.*
%AMANN*
1,1,$1,0,0*
1,0,$2,0,0*
%
*
*
G04 Odd Aperture macro.*
%AMODD*
1,1,$1,0,0*
1,0,$1-0.005,0,0*
%
*
*
G04 PC Custom Aperture Macros*
*
*
*
*
*
*
G04 PC Aperture Table*
*
%ADD010C,0.001*%
%ADD011R,0.02X0.02*%
%ADD012C,0.01*%
%ADD013R,0.03543X0.04331*%
%ADD014R,0.01102X0.02756*%
%ADD015R,0.02756X0.01102*%
%ADD016R,0.13386X0.13386*%
%ADD018R,0.032X0.036*%
%ADD020R,0.02362X0.05512*%
%ADD021C,0.03937*%
%ADD031C,0.00394*%
%ADD058O,0.01969X0.01969*%
%ADD120R,0.01213X0.01492*%
*
*
*
*
G04 PC Circuitry*
G04 Layer Name ESP_WROOM_02.pcb - circuitry*
%LPD*%
*
*
G04 PC Custom Flashes*
G04 Layer Name ESP_WROOM_02.pcb - flashes*
%LPD*%
*
*
G04 PC Circuitry*
G04 Layer Name ESP_WROOM_02.pcb - circuitry*
%LPD*%
*
G54D10*
G54D11*
G01X2025404Y1604411D03*
X2029404D03*
X2030404Y1587511D03*
X2026404D03*
X2028704Y1609611D03*
X2024704D03*
X2010804Y1584011D03*
X2006804D03*
X1996404Y1618011D03*
Y1622011D03*
G54D12*
X2007690Y1620632D02*
X2006983Y1619925D01*
X2007690Y1619218*
X2008397Y1619925*
X2007690Y1620632*
X2007105Y1619803D02*
X2008275D01*
X2007504Y1619404D02*
Y1620447D01*
X2010518Y1617804D02*
X2009811Y1617097D01*
X2010518Y1616390*
X2011225Y1617097*
X2010518Y1617804*
X2010105Y1616803D02*
X2010932D01*
X2010517Y1617803D02*
X2010519D01*
X2010504Y1616404D02*
Y1617790D01*
X2002290Y1620304D02*
X2001583Y1619597D01*
X2002290Y1618890*
X2002997Y1619597*
X2002290Y1620304*
X2001789Y1619803D02*
X2002790D01*
X2002504Y1619104D02*
Y1620090D01*
X2005118Y1623132D02*
X2004411Y1622425D01*
X2005118Y1621718*
X2005825Y1622425*
X2005118Y1623132*
X2005033Y1621803D02*
X2005203D01*
X2004789Y1622803D02*
X2005447D01*
X2004504Y1622332D02*
Y1622518D01*
X2005504Y1622104D02*
Y1622747D01*
X2016018Y1618032D02*
X2015311Y1617325D01*
X2016018Y1616618*
X2016725Y1617325*
X2016018Y1618032*
X2015833Y1616803D02*
X2016203D01*
X2015789Y1617803D02*
X2016247D01*
X2015504Y1617132D02*
Y1617518D01*
X2016504Y1617104D02*
Y1617547D01*
X2013190Y1615204D02*
X2012483Y1614497D01*
X2013190Y1613790*
X2013897Y1614497*
X2013190Y1615204*
X2013176Y1613803D02*
X2013203D01*
X2012789Y1614803D02*
X2013590D01*
X2012504Y1614475D02*
Y1614518D01*
X2013504Y1614104D02*
Y1614890D01*
G54D13*
X2024413Y1599751D03*
Y1592271D03*
X2030318D03*
Y1599751D03*
G54D14*
X2015194Y1609449D03*
X2013225D03*
X2011257D03*
X2009288D03*
X2007320D03*
X2005351D03*
X2003383D03*
X2001414D03*
Y1589764D03*
X2003383D03*
X2005351D03*
X2007320D03*
X2009288D03*
X2011257D03*
X2013225D03*
X2015194D03*
G54D15*
X1998461Y1606496D03*
Y1604528D03*
Y1602559D03*
Y1600591D03*
Y1598622D03*
Y1596654D03*
Y1594685D03*
Y1592717D03*
X2018146D03*
Y1594685D03*
Y1596654D03*
Y1598622D03*
Y1600591D03*
Y1602559D03*
Y1604528D03*
Y1606496D03*
G54D16*
X2008304Y1599606D03*
G54D18*
X1991554Y1619311D03*
X1985054D03*
X2023154Y1615211D03*
X2029654D03*
G54D20*
X1992346Y1610827D03*
X1987346D03*
X1982346D03*
X1977346D03*
Y1589567D03*
X1982346D03*
X1987346D03*
X1992346D03*
G54D21*
X2007874Y1566929D03*
X2307087D03*
Y1897638D03*
X2015748D03*
G54D31*
X1968504Y1653543D02*
X2039370D01*
Y1574803*
X1968504*
Y1653543*
G54D58*
X2018504Y1631405D03*
X2027307D03*
G54D120*
X1977051Y1618972D03*
Y1622614D03*
X0Y0D02*
M02*
