*
*
G04 PADS 9.5 Build Number: 522968 generated Gerber (RS-274-X) file*
G04 PC Version=2.1*
*
%IN "ESP_WROOM_02.pcb"*%
*
%MOIN*%
*
%FSLAX35Y35*%
*
*
*
*
G04 PC Standard Apertures*
*
*
G04 Thermal Relief Aperture macro.*
%AMTER*
1,1,$1,0,0*
1,0,$1-$2,0,0*
21,0,$3,$4,0,0,45*
21,0,$3,$4,0,0,135*
%
*
*
G04 Annular Aperture macro.*
%AMANN*
1,1,$1,0,0*
1,0,$2,0,0*
%
*
*
G04 Odd Aperture macro.*
%AMODD*
1,1,$1,0,0*
1,0,$1-0.005,0,0*
%
*
*
G04 PC Custom Aperture Macros*
*
*
*
*
*
*
G04 PC Aperture Table*
*
%ADD010C,0.001*%
%ADD012C,0.01*%
%ADD031C,0.00394*%
%ADD036C,0.02362*%
%ADD057C,0.02559*%
%ADD074R,0.024X0.024*%
%ADD075R,0.03943X0.04731*%
%ADD076R,0.01502X0.03156*%
%ADD077R,0.03156X0.01502*%
%ADD078R,0.13786X0.13786*%
%ADD079R,0.036X0.04*%
%ADD080R,0.02762X0.05912*%
%ADD081R,0.03943X0.03943*%
%ADD082C,0.04337*%
%ADD083O,0.02369X0.02369*%
%ADD122R,0.01613X0.01892*%
*
*
*
*
G04 PC Circuitry*
G04 Layer Name ESP_WROOM_02.pcb - circuitry*
%LPD*%
*
*
G04 PC Custom Flashes*
G04 Layer Name ESP_WROOM_02.pcb - flashes*
%LPD*%
*
*
G04 PC Circuitry*
G04 Layer Name ESP_WROOM_02.pcb - circuitry*
%LPD*%
*
G54D10*
G54D12*
G01X2007690Y1620915D02*
X2006700Y1619925D01*
X2007690Y1618935*
X2008680Y1619925*
X2007690Y1620915*
X2006822Y1619803D02*
X2008558D01*
X2007578Y1620803D02*
X2007802D01*
X2007504Y1619121D02*
Y1620729D01*
X2008504Y1619750D02*
Y1620101D01*
X2010518Y1618087D02*
X2009528Y1617097D01*
X2010518Y1616107*
X2011508Y1617097*
X2010518Y1618087*
X2009822Y1616803D02*
X2011214D01*
X2010235Y1617803D02*
X2010802D01*
X2010504Y1616121D02*
Y1618073D01*
X2011504Y1617093D02*
Y1617101D01*
X2002290Y1620587D02*
X2001300Y1619597D01*
X2002290Y1618607*
X2003280Y1619597*
X2002290Y1620587*
X2002093Y1618803D02*
X2002486D01*
X2001506Y1619803D02*
X2003073D01*
X2001504Y1619393D02*
Y1619801D01*
X2002504Y1618821D02*
Y1620373D01*
X2005118Y1623415D02*
X2004128Y1622425D01*
X2005118Y1621435*
X2006108Y1622425*
X2005118Y1623415*
X2004750Y1621803D02*
X2005486D01*
X2004506Y1622803D02*
X2005730D01*
X2004504Y1622050D02*
Y1622801D01*
X2005504Y1621821D02*
Y1623029D01*
X2016018Y1618315D02*
X2015028Y1617325D01*
X2016018Y1616335*
X2017008Y1617325*
X2016018Y1618315*
X2015550Y1616803D02*
X2016486D01*
X2015506Y1617803D02*
X2016530D01*
X2015504Y1616850D02*
Y1617801D01*
X2016504Y1616821D02*
Y1617829D01*
X2013190Y1615487D02*
X2012200Y1614497D01*
X2013190Y1613507*
X2014180Y1614497*
X2013190Y1615487*
X2012893Y1613803D02*
X2013486D01*
X2012506Y1614803D02*
X2013873D01*
X2012504Y1614193D02*
Y1614801D01*
X2013504Y1613821D02*
Y1615173D01*
G54D31*
X1968504Y1653543D02*
X2039370D01*
Y1574803*
X1968504*
Y1653543*
G54D36*
X2034452Y1625984D02*
X2008074D01*
X2001381D02*
X1973425D01*
X2025304Y1578248D02*
X2034452D01*
X2027759D02*
X1973428D01*
G54D57*
X1973425Y1617103D02*
Y1578642D01*
X2034646Y1625984D02*
Y1578642D01*
G54D74*
X2025404Y1604411D03*
X2029404D03*
X2030404Y1587511D03*
X2026404D03*
X2028704Y1609611D03*
X2024704D03*
X2010804Y1584011D03*
X2006804D03*
X1996404Y1618011D03*
Y1622011D03*
G54D75*
X2024413Y1599751D03*
Y1592271D03*
X2030318D03*
Y1599751D03*
G54D76*
X2015194Y1609449D03*
X2013225D03*
X2011257D03*
X2009288D03*
X2007320D03*
X2005351D03*
X2003383D03*
X2001414D03*
Y1589764D03*
X2003383D03*
X2005351D03*
X2007320D03*
X2009288D03*
X2011257D03*
X2013225D03*
X2015194D03*
G54D77*
X1998461Y1606496D03*
Y1604528D03*
Y1602559D03*
Y1600591D03*
Y1598622D03*
Y1596654D03*
Y1594685D03*
Y1592717D03*
X2018146D03*
Y1594685D03*
Y1596654D03*
Y1598622D03*
Y1600591D03*
Y1602559D03*
Y1604528D03*
Y1606496D03*
G54D78*
X2008304Y1599606D03*
G54D79*
X1991554Y1619311D03*
X1985054D03*
X2023154Y1615211D03*
X2029654D03*
G54D80*
X1992346Y1610827D03*
X1987346D03*
X1982346D03*
X1977346D03*
Y1589567D03*
X1982346D03*
X1987346D03*
X1992346D03*
G54D81*
X1968504Y1613780D03*
Y1607874D03*
Y1596063D03*
Y1584252D03*
X2039370Y1619685D03*
Y1613780D03*
Y1601969D03*
Y1625591D03*
X1968504Y1578346D03*
Y1625591D03*
Y1601969D03*
Y1590157D03*
X2039370Y1578346D03*
X1968504Y1619685D03*
X2039370Y1607874D03*
Y1584252D03*
Y1590157D03*
Y1596063D03*
G54D82*
X2007874Y1566929D03*
X2307087D03*
Y1897638D03*
X2015748D03*
G54D83*
X2018504Y1631405D03*
X2027307D03*
G54D122*
X1977051Y1618972D03*
Y1622614D03*
X0Y0D02*
M02*
